<svg xmlns="http://www.w3.org/2000/svg" width="97" height="56" viewBox="0 0 97 56" fill="none">
  <g clip-path="url(#clip0_3577_1576)">
    <path d="M43.7606 31.8931H48.6873H49.962H53.2986V0H43.7606V31.8931Z" fill="#8A8C8C"/>
    <path d="M54.1573 0V7.87325H58.0933V31.8931H68.1098V7.87325H78.9158V0H54.1573Z" fill="#565759"/>
    <path d="M1.73316 35.5962H4.13722L6.04482 40.6133L8.06199 35.5962H10.4907L12.2104 44.9824H9.56481L8.78209 39.5786H8.75749L6.50326 44.9824H5.53046L3.37463 39.5786H3.35003L2.46891 44.9824H0L1.73316 35.5962Z" fill="#565759"/>
    <path d="M15.9182 43.351L15.2697 44.9824H12.6778L16.2917 35.5962H18.9574L22.4953 44.9824H19.8922L19.2817 43.351H15.9182ZM17.6268 38.497H17.6022L16.5936 41.4849H18.6242L17.629 38.497H17.6268Z" fill="#565759"/>
    <path d="M23.2109 35.5962H25.653L30.1257 41.3352H30.1503V35.5962H32.5924V44.9824H30.1503L25.6776 39.23H25.653V44.9824H23.2109V35.5962Z" fill="#565759"/>
    <path d="M36.5462 43.351L35.8977 44.9824H33.3058L36.9175 35.5962H39.5832L43.1211 44.9824H40.518L39.9074 43.351H36.544H36.5462ZM38.2526 38.497H38.228L37.2194 41.4849H39.25L38.2526 38.497Z" fill="#565759"/>
    <path d="M52.8759 39.7395C52.8513 41.1094 52.7507 42.2782 51.9165 43.4493C50.9951 44.7321 49.6108 45.2908 48.0432 45.2908C45.0912 45.2908 43.036 43.2861 43.036 40.3362C43.036 37.3862 45.1046 35.2833 48.1304 35.2833C50.0603 35.2833 51.5564 36.1548 52.366 37.9092L50.0492 38.8813C49.7137 37.9852 49.0026 37.3862 48.0186 37.3862C46.4129 37.3862 45.5765 38.9171 45.5765 40.3496C45.5765 41.7821 46.4487 43.2861 48.0566 43.2861C49.1144 43.2861 49.9262 42.7386 50.0246 41.6547H48.032V39.7372H52.8781L52.8759 39.7395Z" fill="#565759"/>
    <path d="M56.4585 37.6611V39.2277H59.2114V41.2949H56.4585V42.9129H59.3613V44.9801H54.0187V35.5939H59.3613V37.6611H56.4585Z" fill="#565759"/>
    <path d="M75.785 37.6611V39.2277H78.5379V41.2949H75.785V42.9129H78.6877V44.9801H73.3429V35.5939H78.6877V37.6611H75.785Z" fill="#565759"/>
    <path d="M80.2017 35.5962H82.6438L87.1165 41.3352H87.1411V35.5962H89.5831V44.9824H87.1411L82.6684 39.23H82.6438V44.9824H80.2017V35.5962Z" fill="#565759"/>
    <path d="M94.8162 44.9824H92.3741V37.6634H90.3569V35.5962H96.8356V37.6634H94.8184V44.9824H94.8162Z" fill="#565759"/>
    <path d="M61.9801 35.5939H64.3841L66.2895 40.611L68.3067 35.5939H70.7353L72.4551 44.9801H69.8117L69.029 39.5763H69.0044L66.7502 44.9801H65.7774L63.6215 39.5763H63.5969L62.7158 44.9801H60.2424L61.9756 35.5939H61.9801Z" fill="#565759"/>
    <path d="M42.9041 15.9454L42.7766 15.2616L39.932 0H30.3829L23.9087 15.4917L17.4345 0H7.83837L1.90314 31.8931H11.4232L14.4803 15.5543L21.6477 31.8931H26.1674L33.3013 15.5543L36.336 31.8931H39.6704H42.9041V15.9454Z" fill="#A51E36"/>
    <path d="M0.0111694 55.5642H3.39251V54.7351H0.905704V52.6008H3.32095V51.7717H0.905704V50.2275H3.39251V49.3983H0.0111694V55.5642Z" fill="#A51E36"/>
    <path d="M9.00576 49.3983H7.98152L6.71352 51.5237L5.52155 49.3983H4.50178L6.20587 52.3371L4.26697 55.5642H5.27332L6.71128 53.1662L8.09334 55.5642H9.09969L7.22564 52.3371L9.00576 49.3983Z" fill="#A51E36"/>
    <path d="M10.2066 55.5642H13.5879V54.7351H11.1011V52.6008H13.5164V51.7717H11.1011V50.2275H13.5879V49.3983H10.2066V55.5642Z" fill="#A51E36"/>
    <path d="M18.0338 49.2687C16.1955 49.2687 14.7553 50.6945 14.7553 52.5115C14.7553 54.3284 16.1977 55.6916 17.9689 55.6916C18.5191 55.6916 19.1251 55.5307 19.588 55.258L19.6238 55.2379V54.1496L19.5053 54.2568C19.067 54.6479 18.5146 54.8625 17.9466 54.8625C16.6808 54.8625 15.6521 53.7987 15.6521 52.4891C15.6521 51.1795 16.6897 50.1001 17.9622 50.1001C18.5258 50.1001 19.1027 50.3146 19.5053 50.6722L19.6238 50.7772V49.7068L19.5903 49.6866C19.1452 49.414 18.6063 49.2687 18.0338 49.2687Z" fill="#A51E36"/>
    <path d="M24.6534 53.0255C24.6534 54.2524 24.2016 54.8468 23.2691 54.8468C22.3365 54.8468 21.8848 54.2501 21.8848 53.0255V49.3983H20.9902V53.2802C20.9902 54.7239 21.9049 55.6938 23.2691 55.6938C24.6332 55.6938 25.5479 54.7239 25.5479 53.2802V49.3983H24.6534V53.0255Z" fill="#A51E36"/>
    <path d="M26.6057 50.2275H28.037V55.5642H28.9315V50.2275H30.3628V49.3983H26.6057V50.2275Z" fill="#A51E36"/>
    <path d="M32.4 49.3983H31.5055V55.5664H32.4V49.3983Z" fill="#A51E36"/>
    <path d="M36.1682 53.7361L34.4172 49.3983H33.4377L36.1682 56L38.8876 49.3983H37.9104L36.1682 53.7361Z" fill="#A51E36"/>
    <path d="M39.941 55.5642H43.3223V54.7351H40.8355V52.6008H43.2508V51.7717H40.8355V50.2275H43.3223V49.3983H39.941V55.5642Z" fill="#A51E36"/>
    <path d="M47.8576 55.5642H51.2389V54.7351H48.7521V52.6008H51.1674V51.7717H48.7521V50.2275H51.2389V49.3983H47.8576V55.5642Z" fill="#A51E36"/>
    <path d="M53.9963 49.3983H52.6769V55.5664H53.9717C56.1164 55.5664 57.4492 54.373 57.4492 52.4511C57.4492 50.5292 56.094 49.4006 53.9963 49.4006V49.3983ZM53.5714 50.2275H53.7637C55.0362 50.2275 56.5547 50.6186 56.5547 52.4802C56.5547 54.3418 55.0362 54.7329 53.7637 54.7329H53.5714V50.2252V50.2275Z" fill="#A51E36"/>
    <path d="M62.3379 53.0255C62.3379 54.2524 61.8861 54.8468 60.9536 54.8468C60.021 54.8468 59.5693 54.2501 59.5693 53.0255V49.3983H58.6747V53.2802C58.6747 54.7239 59.5894 55.6938 60.9536 55.6938C62.3177 55.6938 63.2324 54.7239 63.2324 53.2802V49.3983H62.3379V53.0255Z" fill="#A51E36"/>
    <path d="M67.7901 49.2687C65.9518 49.2687 64.5116 50.6945 64.5116 52.5115C64.5116 54.3284 65.954 55.6916 67.7252 55.6916C68.2753 55.6916 68.8814 55.5307 69.3443 55.258L69.3801 55.2379V54.1496L69.2616 54.2568C68.8232 54.6479 68.2709 54.8625 67.7028 54.8625C66.4371 54.8625 65.4084 53.7987 65.4084 52.4891C65.4084 51.1795 66.4438 50.1001 67.7185 50.1001C68.2821 50.1001 68.859 50.3146 69.2616 50.6722L69.3801 50.7772V49.7068L69.3466 49.6866C68.9015 49.414 68.3626 49.2687 67.7901 49.2687Z" fill="#A51E36"/>
    <path d="M70.174 55.5642H71.14L71.8266 54.0535H74.5013L75.1878 55.5642H76.1539L73.1639 49.0408L70.174 55.5642ZM73.1639 51.0365L74.1256 53.2244H72.2023L73.1639 51.0365Z" fill="#A51E36"/>
    <path d="M76.6325 50.2275H78.0638V55.5642H78.9605V50.2275H80.3895V49.3983H76.6325V50.2275Z" fill="#A51E36"/>
    <path d="M82.4291 49.3983H81.5346V55.5664H82.4291V49.3983Z" fill="#A51E36"/>
    <path d="M86.9398 49.2687C85.1597 49.2687 83.7105 50.7102 83.7105 52.4802C83.7105 54.2501 85.1283 55.6916 86.9398 55.6916C88.7512 55.6916 90.169 54.2814 90.169 52.4802C90.169 50.6789 88.7199 49.2687 86.9398 49.2687ZM86.9398 54.8446C85.6517 54.8446 84.605 53.7831 84.605 52.4802C84.605 51.1773 85.6092 50.1157 86.9398 50.1157C88.2704 50.1157 89.2745 51.1326 89.2745 52.4802C89.2745 53.8278 88.2279 54.8446 86.9398 54.8446Z" fill="#A51E36"/>
    <path d="M95.9254 49.3983V53.7406L91.4012 49.0028V55.5642H92.2958V51.1817L96.8221 55.9195V49.3983H95.9254Z" fill="#A51E36"/>
  </g>
  <defs>
    <clipPath id="clip0_3577_1576">
      <rect width="96.8333" height="56" fill="white"/>
    </clipPath>
  </defs>
</svg>